Coordinates
version=1
nRows=10
nColumns=46
inDegrees=yes

Units are S.I. units (second, meters, Newtons, ...)
Angles are in degrees.

endheader
time	pelvis_tilt	pelvis_list	pelvis_rotation	pelvis_tx	pelvis_ty	pelvis_tz	bb_angle	bb_tx	bb_ty	bb_tz	hip_flexion_r	hip_adduction_r	hip_rotation_r	knee_angle_r	knee_angle_r_beta	ankle_angle_r	subtalar_angle_r	mtp_angle_r	crank_angle_r	hip_flexion_l	hip_adduction_l	hip_rotation_l	knee_angle_l	knee_angle_l_beta	ankle_angle_l	subtalar_angle_l	mtp_angle_l	crank_angle_l	lumbar_extension	lumbar_bending	lumbar_rotation	arm_flex_r	arm_add_r	arm_rot_r	elbow_flex_r	pro_sup_r	wrist_flex_r	wrist_dev_r	arm_flex_l	arm_add_l	arm_rot_l	elbow_flex_l	pro_sup_l	wrist_flex_l	wrist_dev_l
      7.50000000	    -19.03774789	     -0.59222665	      3.46639672	      0.07184454	      0.99785115	     -0.21948271	      0.00000000	      0.50000000	      0.00000000	      0.25000000	     72.47843658	     -5.57378185	      4.35044687	    103.04911215	      1.79854630	     -6.49008842	    -12.90561497	      0.00000000	      0.00000000	     69.03286638	     -4.27185907	     -0.40821179	     55.56268826	      0.96975185	     -4.34411817	     -6.74560486	      0.00000000	      0.00000000	    -48.38738862	      5.77634617	      1.86349847	     82.76713538	    -17.60633408	     33.35965085	     59.65188204	     47.93717942	      0.00000000	      0.00000000	     89.17941586	    -23.37767790	     58.87955457	     53.91922069	     38.05332553	      0.00000000	      0.00000000
      7.50500000	    -18.75003493	     -0.97884625	      2.92846795	      0.07144339	      0.99676999	     -0.21978208	      0.00000000	      0.50000000	      0.00000000	      0.25000000	     74.02353665	     -4.68385634	      4.83161669	    105.15895322	      1.83536997	     -6.55886036	    -12.18998688	      0.00000000	      0.00000000	     67.31827570	     -4.68362729	     -0.22833510	     53.76855432	      0.93843831	     -5.29017564	     -7.49473329	      0.00000000	      0.00000000	    -48.50702238	      6.34595561	      0.34366515	     84.73799067	    -13.25533654	     34.71381356	     54.12072531	     47.29614759	      0.00000000	      0.00000000	     89.04578764	    -27.78272923	     59.62996311	     57.08189039	     39.15501543	      0.00000000	      0.00000000
      7.51000000	    -18.52007867	     -1.37349509	      2.23128677	      0.07136082	      0.99588508	     -0.21980178	      0.00000000	      0.50000000	      0.00000000	      0.25000000	     75.63044564	     -3.67580937	      5.16163235	    107.14836705	      1.87009179	     -6.81968429	    -11.95961383	      0.00000000	      0.00000000	     65.57263750	     -5.33005981	     -0.23201991	     51.97749499	      0.90717842	     -5.91678225	     -7.83332490	      0.00000000	      0.00000000	    -48.74374138	      6.35115830	      0.71328884	     84.85180909	    -12.71569958	     34.51664826	     54.27983925	     47.26008420	      0.00000000	      0.00000000	     88.92341575	    -28.30700926	     58.71518229	     57.20370642	     39.25254437	      0.00000000	      0.00000000
      7.51500000	    -18.50370726	     -1.64738921	      1.63600479	      0.07126758	      0.99498757	     -0.22006035	      0.00000000	      0.50000000	      0.00000000	      0.25000000	     77.45189190	     -2.91674299	      5.49870407	    108.91261363	      1.90088370	     -7.11198226	    -11.76259907	      0.00000000	      0.00000000	     63.95838164	     -5.72035221	     -0.21860787	     50.12045351	      0.87476694	     -6.75321137	     -8.64531146	      0.00000000	      0.00000000	    -48.67180815	      6.59456036	      0.29471341	     85.75408110	    -10.91381128	     35.66152091	     52.00868856	     47.01371070	      0.00000000	      0.00000000	     88.79547334	    -30.39473242	     58.97626905	     58.27934475	     39.94152577	      0.00000000	      0.00000000
      7.52000000	    -18.41921958	     -1.75351362	      0.96779242	      0.07125756	      0.99476822	     -0.21962158	      0.00000000	      0.50000000	      0.00000000	      0.25000000	     79.23762215	     -2.09523998	      5.90236998	    110.53584366	      1.92921441	     -7.63105925	    -11.72794817	      0.00000000	      0.00000000	     62.10020847	     -6.23959456	     -0.65627872	     48.08355706	      0.83921639	     -7.42948512	     -8.85327777	      0.00000000	      0.00000000	    -48.92943549	      6.39687751	      0.47346847	     85.72545225	    -10.23986500	     34.81685560	     52.56586090	     46.85279815	      0.00000000	      0.00000000	     88.49023688	    -30.97897063	     57.13879134	     59.00364622	     40.27702574	      0.00000000	      0.00000000
      7.52500000	    -18.47198664	     -1.84914235	      0.17787521	      0.07129233	      0.99432212	     -0.21952382	      0.00000000	      0.50000000	      0.00000000	      0.25000000	     81.24528576	     -1.28259950	      6.30678790	    112.06789737	      1.95595379	     -8.18931197	    -11.40175989	      0.00000000	      0.00000000	     60.38189419	     -6.76778016	     -1.09055134	     46.14601669	      0.80539993	     -8.18837951	     -9.34391126	      0.00000000	      0.00000000	    -48.84558940	      6.28855459	     -0.07126573	     86.67796375	     -8.54687506	     36.73297868	     50.15796776	     46.66681453	      0.00000000	      0.00000000	     88.35766262	    -33.35470411	     58.06771036	     60.12796122	     41.06284147	      0.00000000	      0.00000000
      7.53000000	    -18.29696568	     -1.83649088	     -0.68441462	      0.07149065	      0.99452906	     -0.21920983	      0.00000000	      0.50000000	      0.00000000	      0.25000000	     82.98974076	     -0.47304513	      6.66139749	    113.42260240	      1.97959786	     -8.95385265	    -11.33596223	      0.00000000	      0.00000000	     58.32835782	     -7.33372477	     -1.71634336	     44.17204443	      0.77094761	     -8.77017585	     -9.37848916	      0.00000000	      0.00000000	    -49.14408793	      5.89738477	      0.18400969	     86.83958912	     -8.05673352	     36.85173845	     50.26401159	     46.68221055	      0.00000000	      0.00000000	     88.16079689	    -33.95715593	     57.50744306	     60.22224859	     41.12871434	      0.00000000	      0.00000000
      7.53500000	    -18.38214823	     -2.13108045	     -1.56389410	      0.07168894	      0.99449625	     -0.21899513	      0.00000000	      0.50000000	      0.00000000	      0.25000000	     84.96102196	      0.38432513	      6.57871901	    114.58008241	      1.99979970	     -9.52672303	    -11.19505716	      0.00000000	      0.00000000	     56.61713986	     -8.02085814	     -1.88319028	     42.31618792	      0.73855681	     -8.98604178	     -9.34439783	      0.00000000	      0.00000000	    -49.21032494	      5.77989704	      0.72955373	     87.04464839	     -7.65843496	     36.99132536	     50.35449363	     46.70132940	      0.00000000	      0.00000000	     87.84632552	    -34.42809648	     57.22468406	     60.26198840	     41.15356329	      0.00000000	      0.00000000
      7.54000000	    -18.17401540	     -1.90344023	     -2.62917186	      0.07210205	      0.99517658	     -0.21827804	      0.00000000	      0.50000000	      0.00000000	      0.25000000	     86.72820966	      1.27521865	      6.88150546	    115.60093509	      2.01761694	    -11.18347074	    -11.95606542	      0.00000000	      0.00000000	     54.40324924	     -8.53946260	     -2.84732305	     40.28224047	      0.70305773	    -10.13277981	     -9.97408076	      0.00000000	      0.00000000	    -49.66673826	      5.19413182	      0.00427213	     87.72095695	     -5.97602269	     38.37653371	     49.13798240	     46.56851945	      0.00000000	      0.00000000	     86.87199142	    -37.15388161	     55.39047981	     63.09536976	     42.01159248	      0.00000000	      0.00000000
      7.54500000	    -18.01716723	     -1.93094633	     -3.67718731	      0.07253184	      0.99591485	     -0.21724508	      0.00000000	      0.50000000	      0.00000000	      0.25000000	     88.47331742	      2.25472323	      6.88171334	    116.49569385	      2.03323342	    -11.92319167	    -11.99267484	      0.00000000	      0.00000000	     52.37685980	     -9.25696438	     -3.59871078	     38.50168614	      0.67198119	    -10.67782138	     -9.78840658	      0.00000000	      0.00000000	    -50.01131067	      4.61529443	      0.35762336	     87.85625211	     -5.45006081	     38.52582520	     49.21667141	     46.56580608	      0.00000000	      0.00000000	     86.49847695	    -37.78042227	     54.93832524	     63.32190450	     42.11769144	      0.00000000	      0.00000000
